<svg width="26" height="32" viewBox="0 0 26 32" fill="none" xmlns="http://www.w3.org/2000/svg">
<g clip-path="url(#clip0_3037_167)">
<path d="M12.4974 3C5.6455 3 0.0864198 8.51185 0 15.3413V15.7416C0.0282187 17.2373 0.324515 18.6907 0.853616 20.0453C1.79012 22.444 3.45855 24.5271 5.67019 25.9681C5.88183 26.1057 6.097 26.238 6.31746 26.3632C8.14109 27.4021 10.2487 28 12.4974 28C14.6631 28.0018 16.7936 27.4373 18.6755 26.3632C18.8977 26.2362 19.1164 26.1022 19.3298 25.9646C21.5379 24.5253 23.2046 22.444 24.1429 20.0471C24.7002 18.6201 25 17.0821 25 15.5018C24.9965 8.59651 19.4004 3 12.4974 3ZM12.4956 8.68118C14.1199 8.68118 15.6208 9.5472 16.4321 10.9529C17.2434 12.3587 17.2434 14.0925 16.4321 15.4982C15.6208 16.904 14.1199 17.7718 12.4956 17.77C9.98589 17.77 7.95062 15.7346 7.95062 13.2247C7.95062 10.7148 9.98589 8.67941 12.4956 8.67941V8.68118ZM12.4991 25.7529C9.88713 25.7529 7.50088 24.7652 5.69136 23.146C5.69136 23.1425 5.69136 23.139 5.69136 23.1355C5.69489 23.1002 5.70194 23.0667 5.70723 23.0332C5.94885 21.347 7.3933 20.0488 9.14462 20.0488H15.8483C17.4921 20.0488 18.8677 21.1935 19.2293 22.7298C19.261 22.8621 19.2857 22.9961 19.3016 23.1337C19.3016 23.139 19.3016 23.146 19.3016 23.1513C17.4921 24.7705 15.1076 25.7565 12.4956 25.7565L12.4991 25.7529Z" fill="#94A3B8"/>
</g>
<defs>
<clipPath id="clip0_3037_167">
<rect width="25" height="25" fill="white" transform="translate(0 3)"/>
</clipPath>
</defs>
</svg>
