<svg width="38" height="38" viewBox="0 0 38 38" fill="none" xmlns="http://www.w3.org/2000/svg">
<path d="M18.996 0C8.58116 0 0.131358 8.37801 0 18.7587V19.3673C0.0428924 21.6407 0.493263 23.8499 1.2975 25.9088C2.72099 29.555 5.257 32.7212 8.6187 34.9115C8.94039 35.1206 9.26744 35.3217 9.60254 35.5121C12.3745 37.0911 15.578 38 18.996 38C22.288 38.0027 25.5264 37.1448 28.3867 35.5121C28.7245 35.319 29.0569 35.1153 29.3813 34.9062C32.7376 32.7185 35.271 29.555 36.6971 25.9115C37.5443 23.7426 38 21.4048 38 19.0027C37.9946 8.5067 29.4885 0 18.996 0ZM18.9933 8.63539C21.4623 8.63539 23.7436 9.95174 24.9768 12.0885C26.2099 14.2252 26.2099 16.8606 24.9768 18.9973C23.7436 21.134 21.4623 22.4531 18.9933 22.4504C15.1786 22.4504 12.0849 19.3566 12.0849 15.5416C12.0849 11.7265 15.1786 8.63271 18.9933 8.63271V8.63539ZM18.9987 34.5844C15.0284 34.5844 11.4013 33.0831 8.65086 30.622C8.65086 30.6166 8.65086 30.6113 8.65086 30.6059C8.65623 30.5523 8.66695 30.5013 8.67499 30.4504C9.04226 27.8874 11.2378 25.9142 13.8998 25.9142H24.0895C26.5879 25.9142 28.6789 27.6541 29.2285 29.9893C29.2768 30.1903 29.3143 30.3941 29.3384 30.6032C29.3384 30.6113 29.3384 30.622 29.3384 30.63C26.5879 33.0911 22.9635 34.5898 18.9933 34.5898L18.9987 34.5844Z" fill="#94A3B8"/>
</svg>
